<?xml version="1.0" encoding="utf-8" standalone="no"?>
<!DOCTYPE svg PUBLIC "-//W3C//DTD SVG 1.1//EN"
  "http://www.w3.org/Graphics/SVG/1.1/DTD/svg11.dtd">
<!-- Created with matplotlib (https://matplotlib.org/) -->
<svg height="231.84pt" version="1.1" viewBox="0 0 349.2 231.84" width="349.2pt" xmlns="http://www.w3.org/2000/svg" xmlns:xlink="http://www.w3.org/1999/xlink">
 <metadata>
  <rdf:RDF xmlns:cc="http://creativecommons.org/ns#" xmlns:dc="http://purl.org/dc/elements/1.1/" xmlns:rdf="http://www.w3.org/1999/02/22-rdf-syntax-ns#">
   <cc:Work>
    <dc:type rdf:resource="http://purl.org/dc/dcmitype/StillImage"/>
    <dc:date>2022-07-31T20:50:51.122177</dc:date>
    <dc:format>image/svg+xml</dc:format>
    <dc:creator>
     <cc:Agent>
      <dc:title>Matplotlib v3.3.4, https://matplotlib.org/</dc:title>
     </cc:Agent>
    </dc:creator>
   </cc:Work>
  </rdf:RDF>
 </metadata>
 <defs>
  <style type="text/css">*{stroke-linecap:butt;stroke-linejoin:round;}</style>
 </defs>
 <g id="figure_1">
  <g id="patch_1">
   <path d="M 0 231.84 
L 349.2 231.84 
L 349.2 0 
L 0 0 
z
" style="fill:none;"/>
  </g>
  <g id="axes_1">
   <g id="line2d_1">
    <path clip-path="url(#pd8618e1773)" d="M 0 0 
" style="fill:none;stroke:#000000;stroke-linecap:square;stroke-width:1.5;"/>
   </g>
   <g id="line2d_2">
    <path clip-path="url(#pd8618e1773)" d="M 0 0 
" style="fill:none;stroke:#000000;stroke-linecap:square;stroke-width:1.5;"/>
   </g>
   <g id="line2d_3">
    <path clip-path="url(#pd8618e1773)" d="M 0 0 
" style="fill:none;stroke:#000000;stroke-linecap:square;stroke-width:1.5;"/>
   </g>
   <g id="line2d_4">
    <path clip-path="url(#pd8618e1773)" d="M 0 0 
" style="fill:none;stroke:#000000;stroke-linecap:square;stroke-width:1.5;"/>
   </g>
   <g id="line2d_5">
    <path clip-path="url(#pd8618e1773)" d="M 79.933841 -1 
L 83.93439 18.770998 
L 87.93125 37.441965 
L 91.92811 55.029817 
L 95.714608 70.691473 
L 99.290746 84.588189 
L 102.866884 97.614924 
L 106.232661 109.080257 
L 109.598437 119.774394 
L 112.753853 129.099806 
L 115.909269 137.747736 
L 118.854323 145.208332 
L 121.799378 152.079802 
L 124.534072 157.933668 
L 127.268765 163.281145 
L 130.003459 168.123327 
L 132.527791 172.145709 
L 135.052124 175.739985 
L 137.366095 178.659976 
L 139.680067 181.222954 
L 141.783677 183.244525 
L 143.887288 184.973874 
L 145.990898 186.412691 
L 148.094508 187.562935 
L 149.987758 188.353297 
L 151.881007 188.913666 
L 153.774257 189.246237 
L 155.667506 189.353536 
L 157.560755 189.238474 
L 159.454005 188.904411 
L 161.347254 188.355237 
L 163.450865 187.498262 
L 165.554475 186.388553 
L 167.658086 185.034684 
L 169.972057 183.275589 
L 172.49639 181.052694 
L 174.6 178.97567 
L 177.334694 181.636904 
L 179.859026 183.782554 
L 182.172998 185.465911 
L 184.486969 186.862248 
L 186.59058 187.871813 
L 188.69419 188.625598 
L 190.587439 189.079685 
L 192.480689 189.316861 
L 194.373938 189.333483 
L 196.267188 189.126397 
L 198.160437 188.692874 
L 200.053686 188.030539 
L 201.946936 187.137328 
L 203.840185 186.011441 
L 205.943796 184.485657 
L 208.047406 182.668807 
L 210.151016 180.559276 
L 212.464988 177.899085 
L 214.778959 174.881471 
L 217.092931 171.50508 
L 219.617263 167.411214 
L 222.141596 162.887756 
L 224.87629 157.501361 
L 227.610983 151.608504 
L 230.556038 144.694978 
L 233.501092 137.192276 
L 236.446147 129.099806 
L 239.601563 119.774394 
L 242.756978 109.771235 
L 246.122755 98.354099 
L 249.488532 86.165911 
L 253.064669 72.371515 
L 256.640807 57.70773 
L 260.427306 41.234737 
L 264.213805 23.789323 
L 268.210665 4.321433 
L 269.266159 -1 
L 269.266159 -1 
" style="fill:none;stroke:#000000;stroke-linecap:square;stroke-width:1.5;"/>
   </g>
   <g id="line2d_6">
    <path clip-path="url(#pd8618e1773)" d="M 92.138624 -1 
L 95.92497 14.789194 
L 99.711468 29.632753 
L 103.287606 42.78756 
L 106.863744 55.109172 
L 110.229521 65.952172 
L 113.595297 76.073356 
L 116.961074 85.484474 
L 120.11649 93.676117 
L 123.271905 101.273586 
L 126.427321 108.298144 
L 129.582737 114.777337 
L 132.738152 120.746832 
L 135.893568 126.252572 
L 139.259345 131.680262 
L 143.045843 137.345963 
L 147.884147 144.139731 
L 165.344114 167.921707 
L 169.340974 173.014899 
L 172.706751 176.94693 
L 174.6 178.97567 
L 177.334694 176.000682 
L 180.490109 172.237396 
L 184.276608 167.365691 
L 190.166717 159.372041 
L 207.416323 135.500931 
L 210.992461 130.028659 
L 214.358237 124.465526 
L 217.513653 118.811034 
L 220.669069 112.676191 
L 223.824484 106.018729 
L 226.9799 98.805916 
L 230.135316 91.012487 
L 233.290731 82.618931 
L 236.446147 73.610142 
L 239.811924 63.309486 
L 243.1777 52.284533 
L 246.753838 39.767527 
L 250.329976 26.415717 
L 253.906114 12.223386 
L 257.061376 -1 
L 257.061376 -1 
" style="fill:none;stroke:#000000;stroke-linecap:square;stroke-width:1.5;"/>
   </g>
   <g id="line2d_7">
    <path clip-path="url(#pd8618e1773)" d="M 125.417547 -1 
L 128.951653 14.793305 
L 132.31743 28.839942 
L 135.472846 41.07786 
L 138.4179 51.635086 
L 141.152594 60.6389 
L 143.676927 68.218853 
L 145.990898 74.509008 
L 148.094508 79.64846 
L 150.198119 84.20885 
L 152.091368 87.79904 
L 153.984618 90.88928 
L 155.667506 93.210921 
L 157.350394 95.131728 
L 158.822922 96.486335 
L 160.295449 97.541451 
L 161.767976 98.30363 
L 163.030143 98.729781 
L 164.292309 98.952143 
L 165.554475 98.976623 
L 167.027002 98.763141 
L 168.49953 98.298069 
L 169.972057 97.590642 
L 171.444584 96.649611 
L 173.127473 95.298539 
L 174.6 93.883565 
L 176.493249 95.663286 
L 178.176138 96.941826 
L 179.859026 97.922927 
L 181.331553 98.527591 
L 182.804081 98.885991 
L 184.276608 98.988742 
L 185.538774 98.866071 
L 186.800941 98.542538 
L 188.063107 98.012367 
L 189.535634 97.125547 
L 191.008161 95.942783 
L 192.480689 94.458257 
L 193.953216 92.668141 
L 195.636104 90.246203 
L 197.318993 87.424639 
L 199.212242 83.779564 
L 201.105492 79.64846 
L 203.209102 74.509008 
L 205.523073 68.218853 
L 208.047406 60.6389 
L 210.571739 52.355708 
L 213.306432 42.638469 
L 216.251487 31.36135 
L 219.406902 18.397898 
L 222.772679 3.61879 
L 223.782453 -1 
L 223.782453 -1 
" style="fill:none;stroke:#000000;stroke-linecap:square;stroke-width:1.5;"/>
   </g>
   <g id="line2d_8">
    <path clip-path="url(#pd8618e1773)" d="M 137.62234 -1 
L 141.152594 12.533243 
L 144.518371 24.598869 
L 147.884147 35.839049 
L 151.039563 45.618042 
L 153.984618 54.073589 
L 156.929672 61.870552 
L 159.664366 68.510235 
L 162.399059 74.559554 
L 164.923392 79.606913 
L 167.237363 83.76882 
L 169.551335 87.472666 
L 171.654945 90.429172 
L 173.548195 92.743822 
L 174.6 93.883565 
L 176.493249 91.756347 
L 178.386499 89.294391 
L 180.490109 86.17974 
L 182.59372 82.678588 
L 184.907691 78.394125 
L 187.432024 73.216676 
L 189.956356 67.526844 
L 192.69105 60.797458 
L 195.425743 53.491332 
L 198.370798 44.98915 
L 201.526214 35.160903 
L 204.681629 24.598869 
L 208.047406 12.533243 
L 211.57766 -1 
L 211.57766 -1 
" style="fill:none;stroke:#000000;stroke-linecap:square;stroke-width:1.5;"/>
   </g>
   <g id="line2d_9">
    <path clip-path="url(#pd8618e1773)" d="M 0 0 
" style="fill:none;stroke:#000000;stroke-dasharray:1.5,2.475;stroke-dashoffset:0;stroke-width:1.5;"/>
   </g>
   <g id="line2d_10">
    <path clip-path="url(#pd8618e1773)" d="M 0 0 
" style="fill:none;stroke:#000000;stroke-dasharray:1.5,2.475;stroke-dashoffset:0;stroke-width:1.5;"/>
   </g>
   <g id="line2d_11">
    <path clip-path="url(#pd8618e1773)" d="M 0 0 
" style="fill:none;stroke:#000000;stroke-dasharray:1.5,2.475;stroke-dashoffset:0;stroke-width:1.5;"/>
   </g>
   <g id="line2d_12">
    <path clip-path="url(#pd8618e1773)" d="M 0 0 
" style="fill:none;stroke:#000000;stroke-dasharray:1.5,2.475;stroke-dashoffset:0;stroke-width:1.5;"/>
   </g>
   <g id="line2d_13">
    <path clip-path="url(#pd8618e1773)" d="M 80.484897 -1 
L 84.355112 17.906288 
L 88.351972 36.359357 
L 92.138471 52.834538 
L 95.92497 68.328105 
L 99.501107 82.057802 
L 103.077245 94.908589 
L 106.443022 106.199251 
L 109.808798 116.708922 
L 112.964214 125.851493 
L 116.11963 134.3059 
L 119.064684 141.575139 
L 122.009739 148.243693 
L 124.744433 153.897611 
L 127.479126 159.032769 
L 130.003459 163.312179 
L 132.527791 167.149034 
L 134.841763 170.27719 
L 137.155734 173.033143 
L 139.259345 175.215458 
L 141.362955 177.089972 
L 143.466565 178.65661 
L 145.359815 179.8033 
L 147.253064 180.700525 
L 149.146314 181.348255 
L 151.039563 181.74647 
L 152.932812 181.895157 
L 154.826062 181.794311 
L 156.719311 181.443936 
L 158.612561 180.844043 
L 160.50581 179.99465 
L 162.399059 178.895786 
L 164.292309 177.547485 
L 166.395919 175.756877 
L 168.49953 173.658446 
L 170.60314 171.252275 
L 172.917112 168.250162 
L 174.6 165.833078 
L 176.913971 169.105829 
L 179.227943 172.006433 
L 181.541914 174.534752 
L 183.645525 176.510063 
L 185.749135 178.177522 
L 187.642385 179.414967 
L 189.535634 180.402959 
L 191.428884 181.141465 
L 193.322133 181.630464 
L 195.215382 181.869938 
L 197.108632 181.85988 
L 199.001881 181.600291 
L 200.895131 181.091178 
L 202.78838 180.332559 
L 204.681629 179.324456 
L 206.574879 178.066904 
L 208.468128 176.559941 
L 210.571739 174.593079 
L 212.675349 172.31844 
L 214.98932 169.460963 
L 217.303292 166.231322 
L 219.617263 162.629671 
L 222.141596 158.276524 
L 224.665928 153.481107 
L 227.400622 147.787299 
L 230.135316 141.575139 
L 233.08037 134.3059 
L 236.025425 126.436539 
L 239.180841 117.33982 
L 242.336256 107.555693 
L 245.702033 96.362594 
L 249.06781 84.389497 
L 252.643947 70.814791 
L 256.220085 56.362456 
L 260.006584 40.105234 
L 263.793083 22.868025 
L 267.789943 3.612467 
L 268.715103 -1 
L 268.715103 -1 
" style="fill:none;stroke:#000000;stroke-dasharray:1.5,2.475;stroke-dashoffset:0;stroke-width:1.5;"/>
   </g>
   <g id="line2d_14">
    <path clip-path="url(#pd8618e1773)" d="M 93.327897 -1 
L 96.976775 13.650475 
L 100.552912 27.121828 
L 104.12905 39.713827 
L 107.494827 50.760548 
L 110.860604 61.025938 
L 114.016019 69.939208 
L 116.961074 77.637166 
L 119.906129 84.734836 
L 122.640822 90.787546 
L 125.375516 96.321782 
L 128.110209 101.337176 
L 130.634542 105.50597 
L 133.158874 109.23215 
L 135.472846 112.25881 
L 137.786817 114.91323 
L 139.890428 117.003213 
L 141.994038 118.785371 
L 144.097649 120.259635 
L 145.990898 121.323173 
L 147.884147 122.137236 
L 149.777397 122.701796 
L 151.670646 123.016836 
L 153.563896 123.082345 
L 154.826062 122.987389 
L 155.036423 123.316252 
L 158.191839 131.966841 
L 161.136893 139.419371 
L 164.081948 146.271383 
L 166.816641 152.095792 
L 169.551335 157.401561 
L 172.075667 161.838556 
L 174.6 165.833078 
L 176.913971 162.188336 
L 179.438304 157.788205 
L 181.962637 152.945831 
L 184.69733 147.201189 
L 187.432024 140.938232 
L 190.377078 133.614338 
L 193.322133 125.690374 
L 194.373938 122.987389 
L 196.267188 123.088235 
L 198.160437 122.939548 
L 200.053686 122.541333 
L 201.946936 121.893603 
L 203.840185 120.996378 
L 205.733435 119.849688 
L 207.626684 118.453569 
L 209.730294 116.60984 
L 211.833905 114.458302 
L 213.937515 111.999039 
L 216.251487 108.938545 
L 218.565458 105.50597 
L 221.089791 101.337176 
L 223.614123 96.726007 
L 226.348817 91.231669 
L 229.08351 85.218828 
L 231.818204 78.687885 
L 234.763259 71.075647 
L 237.708313 62.863629 
L 240.863729 53.400187 
L 244.019145 43.249794 
L 247.384921 31.666549 
L 250.750698 19.303903 
L 254.326836 5.315996 
L 255.872103 -1 
L 255.872103 -1 
" style="fill:none;stroke:#000000;stroke-dasharray:1.5,2.475;stroke-dashoffset:0;stroke-width:1.5;"/>
   </g>
   <g id="line2d_15">
    <path clip-path="url(#pd8618e1773)" d="M 123.456251 -1 
L 127.268765 17.631722 
L 131.265625 36.100539 
L 135.052124 52.590673 
L 138.838623 68.099223 
L 142.41476 81.843099 
L 145.990898 94.708088 
L 149.356675 106.012139 
L 152.722451 116.535217 
L 154.826062 122.715077 
L 155.036423 122.960781 
L 156.929672 122.582681 
L 158.822922 121.955064 
L 160.716171 121.077951 
L 162.60942 119.95137 
L 164.50267 118.575357 
L 166.60628 116.753962 
L 168.709891 114.624754 
L 170.813501 112.187814 
L 173.127473 109.151867 
L 174.6 107.026156 
L 176.913971 110.298908 
L 179.227943 113.199512 
L 181.541914 115.72783 
L 183.645525 117.703141 
L 185.749135 119.3706 
L 187.642385 120.608045 
L 189.535634 121.596037 
L 191.428884 122.334544 
L 193.322133 122.823542 
L 194.163577 122.960781 
L 194.373938 122.715077 
L 197.529354 113.330714 
L 200.684769 103.259299 
L 204.050546 91.760181 
L 207.416323 79.48153 
L 210.992461 65.582716 
L 214.568598 50.806872 
L 218.355097 34.207801 
L 222.141596 16.629498 
L 225.743749 -1 
L 225.743749 -1 
" style="fill:none;stroke:#000000;stroke-dasharray:1.5,2.475;stroke-dashoffset:0;stroke-width:1.5;"/>
   </g>
   <g id="line2d_16">
    <path clip-path="url(#pd8618e1773)" d="M 136.299232 -1 
L 139.890428 13.425761 
L 143.466565 26.911299 
L 147.042703 39.517508 
L 150.40848 50.577624 
L 153.774257 60.856426 
L 156.929672 69.782287 
L 159.874727 77.492008 
L 162.819782 84.601453 
L 165.764836 91.11007 
L 168.49953 96.61536 
L 171.234223 101.601788 
L 173.758556 105.743827 
L 174.6 107.026156 
L 176.913971 103.381414 
L 179.438304 98.981283 
L 181.962637 94.138909 
L 184.69733 88.394267 
L 187.432024 82.13131 
L 190.377078 74.807416 
L 193.322133 66.883452 
L 196.477549 57.728295 
L 199.632964 47.885801 
L 202.998741 36.630528 
L 206.364518 24.595352 
L 209.940655 10.954795 
L 212.900768 -1 
L 212.900768 -1 
" style="fill:none;stroke:#000000;stroke-dasharray:1.5,2.475;stroke-dashoffset:0;stroke-width:1.5;"/>
   </g>
   <g id="line2d_17">
    <path clip-path="url(#pd8618e1773)" d="M 7.2 163.7568 
L 342 163.7568 
" style="fill:none;stroke:#000000;stroke-linecap:square;"/>
   </g>
   <g id="line2d_18">
    <path clip-path="url(#pd8618e1773)" d="M 174.6 224.64 
L 174.6 7.2 
" style="fill:none;stroke:#000000;stroke-linecap:square;"/>
   </g>
   <g id="line2d_19">
    <path clip-path="url(#pd8618e1773)" d="M 7.2 223.77024 
L 342 223.77024 
" style="fill:none;stroke:#000000;stroke-linecap:square;"/>
   </g>
   <g id="line2d_20">
    <path clip-path="url(#pd8618e1773)" d="M 136.105659 232.84 
L 308.25013 -1 
L 308.25013 -1 
" style="fill:none;stroke:#008000;stroke-linecap:square;stroke-width:1.5;"/>
   </g>
   <g id="line2d_21">
    <path clip-path="url(#pd8618e1773)" d="M 184.162863 232.84 
L 311.136428 -1 
L 311.136428 -1 
" style="fill:none;stroke:#ff0000;stroke-linecap:square;stroke-width:1.5;"/>
   </g>
  </g>
 </g>
 <defs>
  <clipPath id="pd8618e1773">
   <rect height="217.44" width="334.8" x="7.2" y="7.2"/>
  </clipPath>
 </defs>
</svg>
